<svg width="718" height="219" viewBox="0 0 718 219" fill="none" xmlns="http://www.w3.org/2000/svg">
<rect width="97.6709" height="28.6145" transform="matrix(0.866044 0.499967 -0.866044 0.499967 211.139 107.774)" fill="black"/>
<rect width="97.6709" height="28.6145" transform="matrix(0.866044 0.499967 -0.866044 0.499967 213.782 155.081)" fill="black"/>
<rect width="97.6709" height="28.6145" transform="matrix(0.866044 0.499967 -0.866044 0.499967 107.057 47.3062)" fill="black"/>
<rect width="97.6709" height="28.6145" transform="matrix(0.866044 0.499967 -0.866044 0.499967 198.913 54.5547)" fill="black"/>
<rect width="97.6709" height="28.6145" transform="matrix(0.866044 0.499967 -0.866044 0.499967 24.7822 45.9712)" fill="black"/>
<rect width="97.6709" height="28.6145" transform="matrix(0.866044 0.499967 -0.866044 0.499967 119.282 100.526)" fill="black"/>
<path d="M317.738 145C318.598 139.18 319.223 133.027 319.613 126.543C320.043 120.02 320.258 113.066 320.258 105.684C320.258 95.7227 320.062 87.3242 319.672 80.4883C319.281 73.6523 318.812 68.3789 318.266 64.668C313.5 64.9805 309.027 65.6836 304.848 66.7773C300.668 67.8711 296.742 69.3555 293.07 71.2305C293.852 69.7461 294.633 67.7734 295.414 65.3125C296.156 62.8125 296.684 59.8633 296.996 56.4648L298.52 56.9336C303.129 58.3789 313.48 59.1016 329.574 59.1016C340.277 59.1016 349.652 58.2227 357.699 56.4648C356.566 59.1211 355.688 61.6406 355.062 64.0234C354.477 66.3672 354.086 68.7695 353.891 71.2305L352.66 70.4102C347.895 67.2461 340.98 65.3516 331.918 64.7266C331.254 69.7656 330.746 75.0391 330.395 80.5469C330.043 86.0156 329.867 92.1094 329.867 98.8281C329.906 108.242 330.082 116.152 330.395 122.559C330.707 128.965 331.254 133.945 332.035 137.5L332.504 139.609C330.707 139.805 329.047 140.098 327.523 140.488C326 140.879 324.613 141.348 323.363 141.895C322.152 142.441 321.078 142.988 320.141 143.535C319.203 144.043 318.402 144.531 317.738 145ZM360.017 145C360.759 139.102 361.306 133.75 361.658 128.945C362.048 124.102 362.244 119.727 362.244 115.82C362.244 112.656 362.205 109.707 362.127 106.973C362.088 104.199 361.99 101.582 361.834 99.1211C361.677 96.6211 361.463 94.2188 361.189 91.9141C360.955 89.6094 360.662 87.2852 360.31 84.9414L360.017 84.0039C362.4 83.7305 364.763 83.1836 367.107 82.3633C369.49 81.5039 371.912 80.3906 374.373 79.0234L374.783 78.7891C374.392 79.9219 373.982 81.1719 373.552 82.5391C373.123 83.8672 372.693 85.2734 372.263 86.7578L385.095 78.7891C386.658 79.2188 388.591 79.9805 390.896 81.0742C393.24 82.1289 395.603 83.5352 397.986 85.293C400.369 87.0117 402.595 89.0625 404.666 91.4453C406.775 93.7891 408.357 96.4453 409.412 99.4141L398.806 103.75C397.205 100.82 395.369 98.3594 393.298 96.3672C391.228 94.3359 389.099 92.6953 386.912 91.4453C384.724 90.1562 382.576 89.2383 380.466 88.6914C378.357 88.1055 376.463 87.8125 374.783 87.8125C373.963 87.8125 373.142 87.8711 372.322 87.9883H372.263C372.107 89.4336 371.99 91.7383 371.912 94.9023C371.873 98.0273 371.853 102.051 371.853 106.973V109.023C371.853 120 372.673 129.492 374.314 137.5L374.783 139.609C373.259 139.805 371.755 140.098 370.271 140.488C368.787 140.879 367.38 141.348 366.052 141.895C364.763 142.402 363.591 142.93 362.537 143.477C361.482 144.023 360.642 144.531 360.017 145ZM411.73 75.625C412.472 72.4219 412.843 69.0625 412.843 65.5469C412.843 64.4922 412.804 63.4375 412.726 62.3828C412.687 61.3281 412.589 60.2734 412.433 59.2188L412.081 57.9883C417.12 57.4805 422.218 55.7422 427.374 52.7734L427.784 52.5391C427.159 54.7656 426.847 57.9492 426.847 62.0898C426.847 63.1836 426.886 64.3945 426.964 65.7227C427.081 67.0117 427.238 68.4375 427.433 70C425.831 70.1953 424.23 70.5078 422.628 70.9375C421.066 71.3281 419.581 71.7969 418.175 72.3438C416.808 72.8516 415.558 73.3984 414.425 73.9844C413.331 74.5703 412.433 75.1172 411.73 75.625ZM412.726 145C413.468 139.102 414.015 133.75 414.366 128.945C414.757 124.102 414.952 119.727 414.952 115.82C414.952 112.656 414.913 109.707 414.835 106.973C414.796 104.199 414.698 101.582 414.542 99.1211C414.386 96.6211 414.171 94.2188 413.898 91.9141C413.663 89.6094 413.37 87.2852 413.019 84.9414L412.726 84.0039C415.109 83.7305 417.472 83.1836 419.816 82.3633C422.198 81.5039 424.62 80.3906 427.081 79.0234L427.491 78.7891C425.538 85.5469 424.562 94.9414 424.562 106.973V109.023C424.562 120 425.382 129.492 427.023 137.5L427.491 139.609C425.812 139.805 424.21 140.117 422.687 140.547C421.202 140.938 419.816 141.387 418.527 141.895C417.277 142.402 416.144 142.93 415.128 143.477C414.152 144.023 413.351 144.531 412.726 145ZM489.985 140.137C488.501 143.496 485.825 147.402 481.958 151.855C479.38 154.824 476.977 157.07 474.751 158.594L461.743 166.973C458.071 165.566 455.981 164.727 455.473 164.453C453.364 163.32 450.727 161.289 447.563 158.359C446.313 157.109 445.18 155.82 444.165 154.492L454.77 149.219L459.927 154.023C463.091 156.992 467.368 158.477 472.759 158.477C473.149 158.477 473.559 158.477 473.989 158.477L474.106 158.418C476.606 156.426 478.559 151.387 479.966 143.301C480.512 140.098 480.805 137.402 480.845 135.215C480.962 127.012 481.02 121.465 481.02 118.574C481.02 117.91 481.02 117.344 481.02 116.875C480.981 114.492 480.962 112.91 480.962 112.129C480.962 107.598 480.063 104.16 478.266 101.816C475.766 98.1055 472.387 95.2734 468.13 93.3203C464.067 91.4453 458.442 89.4922 451.255 87.4609C449.067 91.2109 447.641 94.9023 446.977 98.5352C446.352 101.973 446.04 105.137 446.04 108.027C446.04 109.395 446.196 110.879 446.509 112.48C447.29 116.465 448.735 119.98 450.845 123.027C453.071 126.387 456.352 129.121 460.688 131.23C464.907 133.262 470.708 135.137 478.091 136.855L465.669 145C463.833 144.531 461.04 143.34 457.29 141.426C454.595 140.059 451.665 137.949 448.501 135.098C445.063 131.738 442.641 128.008 441.235 123.906C439.634 119.531 438.833 115.391 438.833 111.484C438.833 107.227 439.692 102.949 441.411 98.6523C443.247 94.043 445.473 90.8008 448.091 88.9258L450.141 87.168L463.501 78.8477C466.196 79.5508 468.97 80.7031 471.821 82.3047C474.36 83.75 477.27 85.8594 480.552 88.6328C485.552 92.8516 488.755 96.4062 490.161 99.2969L490.337 111.777C490.61 122.051 490.923 128.574 491.274 131.348C491.626 134.121 491.802 135.547 491.802 135.625L489.985 140.137ZM505.78 145C506.522 139.102 507.069 133.75 507.42 128.945C507.811 124.102 508.006 119.727 508.006 115.82C508.006 112.656 507.967 109.707 507.889 106.973C507.85 104.199 507.752 101.582 507.596 99.1211C507.44 96.6211 507.225 94.2188 506.952 91.9141C506.717 89.6094 506.424 87.2852 506.073 84.9414L505.78 84.0039C508.163 83.7305 510.526 83.1836 512.87 82.3633C515.252 81.5039 517.674 80.3906 520.135 79.0234L520.545 78.7891C520.155 79.9219 519.745 81.1719 519.315 82.5391C518.885 83.8672 518.455 85.2734 518.026 86.7578L530.858 78.7891C532.42 79.2188 534.354 79.9805 536.659 81.0742C539.002 82.1289 541.366 83.5352 543.748 85.293C546.131 87.0117 548.358 89.0625 550.428 91.4453C552.538 93.7891 554.12 96.4453 555.174 99.4141L544.569 103.75C542.967 100.82 541.131 98.3594 539.061 96.3672C536.991 94.3359 534.862 92.6953 532.674 91.4453C530.487 90.1562 528.338 89.2383 526.229 88.6914C524.12 88.1055 522.225 87.8125 520.545 87.8125C519.725 87.8125 518.905 87.8711 518.084 87.9883H518.026C517.87 89.4336 517.752 91.7383 517.674 94.9023C517.635 98.0273 517.616 102.051 517.616 106.973V109.023C517.616 120 518.436 129.492 520.077 137.5L520.545 139.609C519.022 139.805 517.518 140.098 516.034 140.488C514.549 140.879 513.143 141.348 511.815 141.895C510.526 142.402 509.354 142.93 508.299 143.477C507.245 144.023 506.405 144.531 505.78 145ZM555.91 95.7812C556.926 93.4375 558.645 91.2891 561.066 89.3359L563.82 87.1094L577.18 78.7891C579.406 79.375 582.16 80.5078 585.441 82.1875C588.566 83.7891 591.496 85.918 594.23 88.5742C597.668 91.9336 600.09 95.5469 601.496 99.4141C603.02 103.164 603.84 107.266 603.957 111.719C604.23 122.812 604.953 131.406 606.125 137.5L606.594 139.609C603.938 139.922 601.555 140.469 599.445 141.25C596.047 142.5 593.508 143.75 591.828 145C593.312 134.453 594.055 123.965 594.055 113.535C594.055 113.027 594.055 112.5 594.055 111.953C594.055 107.5 593.352 104.102 591.945 101.758C589.484 98.125 586.086 95.293 581.75 93.2617C577.844 91.4258 572.062 89.668 564.406 87.9883C563.781 88.9648 563.469 90.6641 563.469 93.0859C563.469 94.6094 563.723 96.6016 564.23 99.0625L555.91 95.7812ZM579.465 145C577.238 144.219 573.703 142.578 568.859 140.078C565.227 138.203 561.711 135.391 558.312 131.641C555.812 127.734 554.562 124.121 554.562 120.801C554.562 120.723 554.562 120.625 554.562 120.508C555.148 115.781 557.336 111.953 561.125 109.023C567.531 104.102 575.559 101.602 585.207 101.523C573.293 105.898 566.398 110.781 564.523 116.172C564.133 117.305 563.938 118.398 563.938 119.453C563.938 121.25 564.562 122.852 565.812 124.258C569.172 127.656 572.004 129.922 574.309 131.055C581.379 134.531 587.199 136.484 591.77 136.914L579.465 145ZM617.642 145C619.127 133.281 619.869 123.555 619.869 115.82C619.869 111.953 619.849 109.844 619.81 109.492C619.732 100.391 619.107 92.207 617.935 84.9414L617.642 84.0039C622.369 83.457 627.154 81.7969 631.998 79.0234L632.408 78.7891C631.627 81.0938 630.787 83.75 629.888 86.7578L642.72 78.7891C644.947 79.375 647.701 80.5078 650.982 82.1875C654.068 83.7891 656.998 85.918 659.771 88.5742L682.447 78.7891C684.673 79.375 687.427 80.5078 690.709 82.1875C693.755 83.7891 696.685 85.918 699.498 88.5742C702.935 91.8555 705.357 95.4688 706.763 99.4141C708.287 103.164 709.107 107.266 709.224 111.719C709.576 123.086 710.298 131.68 711.392 137.5L711.861 139.609C709.244 139.922 706.861 140.469 704.712 141.25C701.314 142.5 698.775 143.75 697.095 145C698.619 134.766 699.38 124.863 699.38 115.293C699.341 114.043 699.322 112.93 699.322 111.953C699.322 107.461 698.619 104.062 697.212 101.758C694.83 98.2031 691.431 95.3711 687.017 93.2617C679.986 89.9023 673.736 88.2227 668.267 88.2227C665.533 88.2227 662.994 88.6328 660.65 89.4531C663.619 92.5391 665.748 95.8594 667.037 99.4141C668.56 103.164 669.38 107.266 669.498 111.719C669.849 123.086 670.572 131.68 671.666 137.5L672.134 139.609C669.517 139.922 667.134 140.469 664.986 141.25C661.587 142.5 659.048 143.75 657.369 145C658.892 134.766 659.654 124.863 659.654 115.293C659.615 114.043 659.595 112.93 659.595 111.953C659.595 107.461 658.892 104.062 657.486 101.758C655.142 98.3203 651.744 95.4883 647.291 93.2617C643.384 91.3086 637.603 89.5508 629.947 87.9883H629.888C629.615 90.8398 629.478 97.168 629.478 106.973V109.023C629.478 120 630.298 129.492 631.939 137.5L632.408 139.609C629.752 139.922 627.369 140.469 625.259 141.25C621.861 142.5 619.322 143.75 617.642 145Z" fill="black"/>
</svg>
