<svg width="557" height="187" viewBox="0 0 557 187" fill="none" xmlns="http://www.w3.org/2000/svg">
<path d="M91.176 2.59999C89.256 10.216 87.016 17.384 84.456 24.104C81.96 30.76 79.4 36.584 76.776 41.576C74.152 46.504 71.336 51.112 68.328 55.4C65.32 59.624 62.44 63.208 59.688 66.152C56.936 69.032 54.088 71.656 51.144 74.024C48.2 76.392 45.576 78.28 43.272 79.688C40.968 81.032 38.664 82.216 36.36 83.24C32.328 85.032 28.424 86.344 24.648 87.176C27.976 91.144 32.904 98.632 39.432 109.64C41.352 112.904 42.824 115.368 43.848 117.032C44.872 118.76 46.28 121.032 48.072 123.848C49.928 126.664 51.496 128.872 52.776 130.472C54.056 132.072 55.528 133.768 57.192 135.56C58.856 137.352 60.456 138.728 61.992 139.688C63.592 140.648 65.16 141.288 66.696 141.608C69.832 142.312 73 141.576 76.2 139.4C76.648 139.08 77.096 138.952 77.544 139.016C78.056 139.144 78.44 139.4 78.696 139.784C79.016 140.232 79.144 140.712 79.08 141.224C79.016 141.736 78.76 142.12 78.312 142.376C75.24 144.488 72.136 145.544 69 145.544C67.976 145.544 66.952 145.448 65.928 145.256C64.584 144.936 63.208 144.424 61.8 143.72C60.456 143.08 59.112 142.184 57.768 141.032C56.424 139.88 55.176 138.728 54.024 137.576C52.872 136.488 51.592 135.016 50.184 133.16C48.84 131.304 47.688 129.704 46.728 128.36C45.768 127.016 44.552 125.16 43.08 122.792C41.608 120.488 40.456 118.664 39.624 117.32C38.856 115.976 37.704 114.024 36.168 111.464C29.512 100.2 24.488 92.584 21.096 88.616C14.248 117.928 10.312 136.712 9.288 144.968C9.544 144.392 9.832 143.752 10.152 143.048C10.344 142.6 10.664 142.28 11.112 142.088C11.624 141.896 12.104 141.896 12.552 142.088C13.064 142.28 13.384 142.6 13.512 143.048C13.704 143.56 13.704 144.072 13.512 144.584C12.232 147.464 11.176 149.48 10.344 150.632C9.576 151.848 8.744 152.456 7.848 152.456C7.592 152.456 7.336 152.424 7.08 152.36C6.056 151.976 5.48 150.984 5.352 149.384C5.288 147.784 5.64 144.392 6.408 139.208C7.496 132.936 9.288 124.04 11.784 112.52C13.32 105.544 15.176 97.384 17.352 88.04C16.264 88.04 15.24 88.008 14.28 87.944C8.904 87.56 5.128 85.992 2.952 83.24C1.48 81.384 1.32 79.688 2.472 78.152C4.392 75.72 8.328 75.816 14.28 78.44C15.816 79.144 17.384 80.104 18.984 81.32C21.032 72.616 24.04 60.04 28.008 43.592C31.4 29.448 33.672 19.976 34.824 15.176C34.888 14.664 35.144 14.28 35.592 14.024C36.04 13.768 36.488 13.704 36.936 13.832C37.448 13.896 37.832 14.152 38.088 14.6C38.408 15.048 38.504 15.528 38.376 16.04C37.288 20.712 35.016 30.184 31.56 44.456C27.528 61.16 24.392 74.28 22.152 83.816C26.312 83.112 30.568 81.8 34.92 79.88C36.776 78.984 38.664 77.992 40.584 76.904C42.504 75.752 44.648 74.312 47.016 72.584C49.448 70.856 51.816 68.84 54.12 66.536C56.424 64.168 58.824 61.512 61.32 58.568C63.816 55.624 66.248 52.2 68.616 48.296C71.048 44.392 73.384 40.168 75.624 35.624C77.864 31.08 80.008 25.928 82.056 20.168C84.104 14.344 85.96 8.2 87.624 1.736C87.752 1.224 88.04 0.839996 88.488 0.584C88.936 0.327995 89.384 0.263992 89.832 0.391991C90.344 0.519997 90.728 0.807999 90.984 1.256C91.24 1.70399 91.304 2.15199 91.176 2.59999ZM7.272 82.184C9.704 83.72 12.872 84.456 16.776 84.392C15.432 83.24 14.088 82.376 12.744 81.8C9.16 80.264 6.76 79.784 5.544 80.36C5.736 80.936 6.312 81.544 7.272 82.184ZM111.491 80.072C112.003 79.944 112.451 80.008 112.835 80.264C113.283 80.52 113.571 80.904 113.699 81.416C113.827 81.928 113.763 82.376 113.507 82.76C112.739 83.976 111.907 85.288 111.011 86.696C110.115 88.04 108.771 89.896 106.979 92.264C105.251 94.632 103.587 96.712 101.987 98.504C100.387 100.232 98.6593 101.768 96.8033 103.112C94.9473 104.456 93.3473 105.128 92.0033 105.128C91.4913 105.128 91.0433 105.032 90.6593 104.84C87.5873 103.688 86.7233 98.792 88.0673 90.152C85.9553 93.032 84.0353 95.208 82.3073 96.68C79.8113 98.792 77.6353 99.048 75.7793 97.448C74.0512 96.04 73.2832 93.544 73.4752 89.96C73.6032 86.376 74.6273 82.92 76.5473 79.592C76.8033 79.144 77.1873 78.856 77.6992 78.728C78.2113 78.6 78.6913 78.664 79.1393 78.92C79.5873 79.176 79.8753 79.56 80.0033 80.072C80.1313 80.52 80.0673 80.968 79.8113 81.416C78.7233 83.208 77.9553 85.096 77.5073 87.08C77.1233 89.064 76.9953 90.728 77.1233 92.072C77.3153 93.352 77.6353 94.184 78.0833 94.568C78.4033 94.888 79.0113 94.664 79.9073 93.896C81.5713 92.488 83.6513 89.96 86.1473 86.312C86.5953 85.736 86.9153 85.32 87.1073 85.064C87.3633 84.744 87.6513 84.392 87.9713 84.008C88.2913 83.56 88.5473 83.272 88.7393 83.144C88.9313 83.016 89.1553 82.888 89.4113 82.76C89.6673 82.568 89.9233 82.504 90.1793 82.568C90.4353 82.568 90.7233 82.632 91.0433 82.76C91.8753 83.08 92.3233 83.816 92.3873 84.968C92.4513 86.056 92.2913 87.496 91.9073 89.288C91.2033 92.808 90.9153 95.496 91.0433 97.352C91.2353 99.208 91.3953 100.36 91.5233 100.808C91.6513 101.192 91.8113 101.384 92.0033 101.384C92.1953 101.512 92.5153 101.448 92.9633 101.192C93.4753 101 94.0513 100.648 94.6913 100.136C95.3953 99.624 96.1633 98.984 96.9953 98.216C97.8273 97.384 98.7553 96.392 99.7793 95.24C100.867 94.088 101.955 92.84 103.043 91.496C104.131 90.088 105.315 88.488 106.595 86.696C107.875 84.84 109.123 82.888 110.339 80.84C110.595 80.392 110.979 80.136 111.491 80.072ZM146.282 79.4C146.794 79.272 147.274 79.336 147.722 79.592C148.17 79.848 148.458 80.232 148.586 80.744C148.714 81.192 148.65 81.64 148.394 82.088C146.218 85.928 144.33 88.968 142.73 91.208C141.13 93.448 139.498 95.208 137.834 96.488C136.17 97.768 134.538 98.312 132.938 98.12C129.738 97.736 127.21 94.28 125.354 87.752C124.01 83.336 122.858 81.128 121.898 81.128C121.706 81.064 121.418 81.16 121.034 81.416C120.714 81.608 120.17 82.184 119.402 83.144C118.634 84.04 117.77 85.288 116.81 86.888C115.914 88.488 114.698 90.856 113.162 93.992C111.69 97.128 110.09 100.84 108.361 105.128C108.041 105.896 107.465 106.28 106.633 106.28C106.505 106.28 106.377 106.248 106.249 106.184C105.161 105.928 104.681 105.256 104.809 104.168C105.449 98.92 107.85 89.16 112.01 74.888C112.458 73.416 112.778 72.296 112.97 71.528C113.162 71.016 113.482 70.664 113.93 70.472C114.378 70.216 114.826 70.152 115.273 70.28C115.786 70.408 116.17 70.696 116.426 71.144C116.682 71.592 116.714 72.072 116.522 72.584C116.394 73.032 116.074 74.152 115.562 75.944C114.154 80.872 113.066 84.712 112.298 87.464C114.346 83.624 116.138 80.968 117.674 79.496C119.21 78.024 120.682 77.32 122.09 77.384C123.754 77.448 125.066 78.312 126.026 79.976C127.05 81.64 128.01 83.912 128.906 86.792C130.314 91.72 131.818 94.28 133.418 94.472C134.186 94.6 135.114 94.184 136.202 93.224C137.354 92.2 138.57 90.76 139.85 88.904C141.13 86.984 142.09 85.48 142.73 84.392C143.434 83.304 144.234 81.928 145.13 80.264C145.386 79.816 145.77 79.528 146.282 79.4ZM182.693 79.592C183.205 79.4 183.685 79.432 184.133 79.688C184.581 79.88 184.869 80.232 184.997 80.744C185.189 81.192 185.189 81.64 184.997 82.088C178.149 96.232 172.037 103.304 166.661 103.304C166.341 103.304 165.989 103.272 165.605 103.208C161.317 102.376 158.661 96.616 157.637 85.928C154.501 90.152 151.717 93.608 149.285 96.296C147.109 98.6 145.253 99.4 143.716 98.696C142.18 98.12 141.444 96.456 141.508 93.704C141.508 91.4 142.02 88.648 143.044 85.448C144.069 82.248 145.573 79.144 147.557 76.136C149.541 73.128 151.685 71.24 153.989 70.472C157.381 69.256 160.517 70.376 163.397 73.832C163.717 74.216 163.845 74.664 163.781 75.176C163.781 75.688 163.589 76.104 163.205 76.424C162.821 76.744 162.373 76.904 161.861 76.904C161.349 76.84 160.933 76.616 160.613 76.232C158.373 73.544 156.101 73.032 153.797 74.696C151.173 76.552 148.965 79.912 147.173 84.776C145.445 89.576 144.773 93 145.157 95.048C145.541 94.728 145.989 94.312 146.501 93.8C149.061 91.048 152.197 87.112 155.909 81.992C156.741 80.84 157.317 80.04 157.637 79.592C158.149 78.952 158.821 78.76 159.653 79.016C160.485 79.208 160.933 79.752 160.997 80.648C161.125 83.784 161.381 86.568 161.765 89C162.149 91.432 162.533 93.288 162.917 94.568C163.301 95.784 163.749 96.808 164.261 97.64C164.773 98.472 165.157 99.016 165.413 99.272C165.733 99.464 166.053 99.56 166.373 99.56C167.269 99.752 168.389 99.336 169.733 98.312C171.141 97.224 172.901 95.176 175.013 92.168C177.189 89.096 179.397 85.224 181.637 80.552C181.893 80.04 182.245 79.72 182.693 79.592ZM207.851 11.048C209.195 13.032 208.523 17.736 205.835 25.16C203.211 32.52 198.923 40.936 192.971 50.408C192.907 50.472 192.843 50.536 192.779 50.6C188.747 66.728 184.875 83.528 181.163 101C177.515 118.536 175.179 131.016 174.155 138.44C174.219 138.44 174.283 138.44 174.347 138.44C174.859 138.632 175.243 138.952 175.499 139.4C175.691 139.848 175.691 140.328 175.499 140.84C175.115 141.928 174.827 142.728 174.635 143.24C174.379 143.816 174.027 144.36 173.579 144.872C173.131 145.384 172.651 145.64 172.139 145.64C171.947 145.64 171.723 145.608 171.467 145.544C170.571 145.224 170.091 144.328 170.027 142.856C169.963 141.448 170.411 137.928 171.371 132.296C172.523 125.384 174.251 116.36 176.555 105.224C181.867 79.88 187.147 57.288 192.395 37.448C192.843 35.784 193.323 34.056 193.835 32.264C194.347 30.408 195.083 28.104 196.043 25.352C197.003 22.6 197.931 20.2 198.827 18.152C199.787 16.04 200.843 14.184 201.995 12.584C203.147 10.92 204.235 10.024 205.259 9.89599C206.347 9.704 207.211 10.088 207.851 11.048ZM196.139 37.736C201.259 28.072 204.139 20.488 204.779 14.984C201.963 19.208 199.083 26.792 196.139 37.736ZM222.476 11.048C223.82 13.032 223.148 17.736 220.46 25.16C217.836 32.52 213.548 40.936 207.596 50.408C207.532 50.472 207.468 50.536 207.404 50.6C203.372 66.728 199.5 83.528 195.788 101C192.14 118.536 189.804 131.016 188.78 138.44C188.844 138.44 188.908 138.44 188.972 138.44C189.484 138.632 189.868 138.952 190.124 139.4C190.316 139.848 190.316 140.328 190.124 140.84C189.74 141.928 189.452 142.728 189.26 143.24C189.004 143.816 188.652 144.36 188.204 144.872C187.756 145.384 187.276 145.64 186.764 145.64C186.572 145.64 186.348 145.608 186.092 145.544C185.196 145.224 184.716 144.328 184.652 142.856C184.588 141.448 185.036 137.928 185.996 132.296C187.148 125.384 188.876 116.36 191.18 105.224C196.492 79.88 201.772 57.288 207.02 37.448C207.468 35.784 207.948 34.056 208.46 32.264C208.972 30.408 209.708 28.104 210.668 25.352C211.628 22.6 212.556 20.2 213.452 18.152C214.412 16.04 215.468 14.184 216.62 12.584C217.772 10.92 218.86 10.024 219.884 9.89599C220.972 9.704 221.836 10.088 222.476 11.048ZM210.764 37.736C215.884 28.072 218.764 20.488 219.404 14.984C216.588 19.208 213.708 26.792 210.764 37.736ZM317.515 61.736C321.227 66.408 323.243 72.2 323.563 79.112C323.947 85.96 322.571 92.968 319.435 100.136C314.763 110.952 307.371 119.656 297.259 126.248C287.147 132.904 275.467 136.712 262.219 137.672C262.219 137.672 262.187 137.672 262.123 137.672C261.611 137.672 261.163 137.512 260.779 137.192C260.459 136.872 260.299 136.456 260.299 135.944C260.235 135.432 260.363 134.984 260.683 134.6C261.067 134.216 261.483 134.024 261.931 134.024C274.475 133.128 285.515 129.544 295.051 123.272C304.651 117.064 311.659 108.872 316.075 98.696C318.955 92.104 320.235 85.704 319.915 79.496C319.659 73.288 317.899 68.136 314.635 64.04C311.051 59.624 306.123 57 299.851 56.168C294.411 61.8 287.915 67.048 280.363 71.912C272.811 76.776 266.987 79.464 262.891 79.976C255.595 116.392 251.499 139.24 250.603 148.52C250.731 148.2 250.859 147.88 250.987 147.56C251.179 147.048 251.499 146.696 251.947 146.504C252.459 146.312 252.939 146.312 253.387 146.504C253.899 146.696 254.251 147.016 254.443 147.464C254.635 147.976 254.635 148.456 254.443 148.904C253.355 151.592 252.427 153.48 251.659 154.568C250.955 155.72 250.187 156.296 249.355 156.296C249.099 156.296 248.843 156.232 248.587 156.104C247.883 155.912 247.403 155.432 247.147 154.664C246.891 153.96 246.795 152.232 246.859 149.48C246.987 146.792 247.499 142.728 248.395 137.288C249.291 131.848 250.603 124.392 252.331 114.92C254.123 105.448 256.459 93.512 259.339 79.112C258.443 78.28 258.155 77.16 258.475 75.752C259.115 73.448 260.075 71.24 261.355 69.128C262.507 63.432 263.755 57.192 265.099 50.408C269.131 30.76 271.755 17.672 272.971 11.144C269.963 11.912 267.147 12.968 264.523 14.312C259.851 16.552 256.043 19.464 253.099 23.048C250.219 26.568 248.299 30.536 247.339 34.952C246.443 39.304 246.539 44.072 247.627 49.256C247.755 49.768 247.659 50.248 247.339 50.696C247.083 51.08 246.699 51.336 246.187 51.464C245.739 51.592 245.291 51.528 244.843 51.272C244.395 50.952 244.139 50.536 244.075 50.024C242.155 41.448 242.827 33.768 246.091 26.984C249.419 20.136 255.019 14.792 262.891 10.952C266.283 9.288 269.899 8.04 273.739 7.20799C273.867 6.44 273.995 5.832 274.123 5.384C274.123 5.064 274.219 4.776 274.411 4.52C274.667 4.264 274.955 4.104 275.275 4.04C275.595 3.91199 275.915 3.87999 276.235 3.944C276.747 4.008 277.131 4.264 277.387 4.712C277.707 5.096 277.803 5.544 277.675 6.056C277.675 6.12 277.675 6.216 277.675 6.34399C277.675 6.40799 277.675 6.43999 277.675 6.43999C284.267 5.48 290.507 5.8 296.395 7.4C302.347 9 306.859 11.688 309.931 15.464C311.787 17.704 313.003 20.168 313.579 22.856C314.219 25.544 314.347 28.104 313.963 30.536C313.643 32.968 312.939 35.528 311.851 38.216C310.763 40.84 309.611 43.112 308.395 45.032C307.243 46.952 305.963 48.84 304.555 50.696C304.043 51.464 303.435 52.232 302.731 53C308.939 54.28 313.867 57.192 317.515 61.736ZM263.659 76.136C266.987 75.176 271.787 72.776 278.059 68.936C284.331 65.096 289.963 60.776 294.955 55.976C292.459 55.976 289.835 56.264 287.083 56.84C282.667 57.736 278.411 59.336 274.315 61.64C270.283 63.944 267.115 66.888 264.811 70.472C264.363 72.776 263.979 74.664 263.659 76.136ZM298.411 52.328C299.627 51.048 300.715 49.768 301.675 48.488C306.347 42.152 309.163 36.36 310.123 31.112C311.083 25.864 310.091 21.448 307.147 17.864C304.331 14.472 300.139 12.104 294.571 10.76C289.003 9.416 283.115 9.288 276.907 10.376C275.691 16.968 272.971 30.536 268.747 51.08C267.787 55.752 266.987 59.72 266.347 62.984C271.595 58.056 278.283 54.792 286.411 53.192C290.635 52.36 294.635 52.072 298.411 52.328ZM371.036 79.592C371.548 79.4 372.028 79.432 372.476 79.688C372.924 79.88 373.212 80.232 373.34 80.744C373.532 81.192 373.532 81.64 373.34 82.088C366.492 96.232 360.38 103.304 355.004 103.304C354.684 103.304 354.332 103.272 353.948 103.208C349.66 102.376 347.004 96.616 345.98 85.928C342.844 90.152 340.06 93.608 337.628 96.296C335.452 98.6 333.596 99.4 332.06 98.696C330.524 98.12 329.788 96.456 329.852 93.704C329.852 91.4 330.364 88.648 331.388 85.448C332.412 82.248 333.916 79.144 335.9 76.136C337.884 73.128 340.028 71.24 342.332 70.472C345.724 69.256 348.86 70.376 351.74 73.832C352.06 74.216 352.188 74.664 352.124 75.176C352.124 75.688 351.932 76.104 351.548 76.424C351.164 76.744 350.716 76.904 350.204 76.904C349.692 76.84 349.276 76.616 348.956 76.232C346.716 73.544 344.444 73.032 342.14 74.696C339.516 76.552 337.308 79.912 335.516 84.776C333.788 89.576 333.116 93 333.5 95.048C333.884 94.728 334.332 94.312 334.844 93.8C337.404 91.048 340.54 87.112 344.252 81.992C345.084 80.84 345.66 80.04 345.98 79.592C346.492 78.952 347.164 78.76 347.996 79.016C348.828 79.208 349.276 79.752 349.34 80.648C349.468 83.784 349.724 86.568 350.108 89C350.492 91.432 350.876 93.288 351.26 94.568C351.644 95.784 352.092 96.808 352.604 97.64C353.116 98.472 353.5 99.016 353.756 99.272C354.076 99.464 354.396 99.56 354.716 99.56C355.612 99.752 356.732 99.336 358.076 98.312C359.484 97.224 361.244 95.176 363.356 92.168C365.532 89.096 367.74 85.224 369.98 80.552C370.236 80.04 370.588 79.72 371.036 79.592ZM406.344 79.4C406.856 79.272 407.336 79.336 407.784 79.592C408.232 79.848 408.52 80.232 408.648 80.744C408.776 81.192 408.712 81.64 408.456 82.088C406.28 85.928 404.392 88.968 402.792 91.208C401.192 93.448 399.56 95.208 397.896 96.488C396.232 97.768 394.6 98.312 393 98.12C389.8 97.736 387.272 94.28 385.416 87.752C384.072 83.336 382.92 81.128 381.96 81.128C381.768 81.064 381.48 81.16 381.096 81.416C380.776 81.608 380.232 82.184 379.464 83.144C378.696 84.04 377.832 85.288 376.872 86.888C375.976 88.488 374.76 90.856 373.224 93.992C371.752 97.128 370.152 100.84 368.424 105.128C368.104 105.896 367.528 106.28 366.696 106.28C366.568 106.28 366.44 106.248 366.312 106.184C365.224 105.928 364.744 105.256 364.872 104.168C365.512 98.92 367.912 89.16 372.072 74.888C372.52 73.416 372.84 72.296 373.032 71.528C373.224 71.016 373.544 70.664 373.992 70.472C374.44 70.216 374.888 70.152 375.336 70.28C375.848 70.408 376.232 70.696 376.488 71.144C376.744 71.592 376.776 72.072 376.584 72.584C376.456 73.032 376.136 74.152 375.624 75.944C374.216 80.872 373.128 84.712 372.36 87.464C374.408 83.624 376.2 80.968 377.736 79.496C379.272 78.024 380.744 77.32 382.152 77.384C383.816 77.448 385.128 78.312 386.088 79.976C387.112 81.64 388.072 83.912 388.968 86.792C390.376 91.72 391.88 94.28 393.48 94.472C394.248 94.6 395.176 94.184 396.264 93.224C397.416 92.2 398.632 90.76 399.912 88.904C401.192 86.984 402.152 85.48 402.792 84.392C403.496 83.304 404.296 81.928 405.192 80.264C405.448 79.816 405.832 79.528 406.344 79.4ZM434.513 79.304C435.025 79.176 435.473 79.272 435.857 79.592C436.305 79.848 436.561 80.232 436.625 80.744C436.689 81.256 436.593 81.704 436.337 82.088C429.105 92.2 422.513 99.368 416.561 103.592C414.193 105.256 411.857 106.088 409.553 106.088C407.761 106.088 406.193 105.608 404.849 104.648C404.081 104.072 403.409 103.304 402.832 102.344C402.192 101.384 401.648 100.04 401.2 98.312C400.752 96.584 400.688 94.312 401.008 91.496C401.264 88.68 401.968 85.48 403.12 81.896V81.8C404.913 75.976 407.089 71.368 409.648 67.976C412.209 64.584 414.513 62.856 416.561 62.792C418.033 62.728 418.993 63.368 419.441 64.712C420.145 66.568 419.313 69.192 416.945 72.584C414.577 75.976 411.089 79.624 406.48 83.528C405.713 86.024 405.169 88.328 404.849 90.44C404.529 92.552 404.401 94.248 404.465 95.528C404.593 96.744 404.817 97.832 405.137 98.792C405.521 99.688 405.841 100.328 406.097 100.712C406.417 101.096 406.737 101.416 407.057 101.672C408.977 103.08 411.441 102.696 414.449 100.52C420.081 96.552 426.353 89.704 433.265 79.976C433.585 79.592 434.001 79.368 434.513 79.304ZM415.889 66.824C413.649 68.232 411.441 71.272 409.265 75.944C412.977 72.232 415.185 69.192 415.889 66.824ZM472.05 79.208C472.562 79.016 473.042 79.048 473.49 79.304C473.938 79.496 474.258 79.848 474.45 80.36C474.642 80.808 474.61 81.256 474.354 81.704C472.626 85.416 470.674 89.224 468.498 93.128C466.322 97.032 463.922 100.968 461.298 104.936C458.738 108.968 456.178 112.232 453.618 114.728C451.058 117.288 448.882 118.568 447.09 118.568C446.642 118.568 446.226 118.472 445.842 118.28C443.218 117.256 442.386 113.288 443.346 106.376C444.242 99.912 446.61 90.76 450.45 78.92C450.386 78.92 450.322 78.952 450.258 79.016C450.258 79.016 450.226 79.016 450.162 79.016C448.754 79.976 447.57 80.712 446.61 81.224C445.714 81.736 444.466 82.312 442.866 82.952C441.33 83.592 439.858 83.88 438.45 83.816C437.042 83.752 435.73 83.304 434.514 82.472C432.082 80.744 430.834 78.344 430.77 75.272C430.706 72.2 431.858 68.84 434.226 65.192C435.698 62.888 437.458 60.872 439.506 59.144C441.618 57.416 443.41 57.032 444.882 57.992C445.778 58.504 446.29 59.336 446.418 60.488C446.61 61.64 446.066 63.88 444.786 67.208C443.506 70.472 441.362 74.76 438.354 80.072C440.338 80.328 443.602 78.952 448.146 75.944C448.978 75.368 449.586 74.984 449.97 74.792C450.418 74.536 450.898 74.28 451.41 74.024C451.986 73.768 452.466 73.672 452.85 73.736C453.234 73.8 453.618 73.96 454.002 74.216C454.962 74.984 455.122 76.328 454.482 78.248C448.082 98.088 445.554 110.12 446.898 114.344C447.026 114.6 447.122 114.792 447.186 114.92C447.698 114.984 448.466 114.568 449.49 113.672C450.578 112.776 451.89 111.368 453.426 109.448C455.026 107.528 456.722 105.224 458.514 102.536C460.37 99.848 462.386 96.552 464.562 92.648C466.802 88.744 468.946 84.584 470.994 80.168C471.25 79.656 471.602 79.336 472.05 79.208ZM434.802 72.68C434.226 74.92 434.354 76.712 435.186 78.056C439.858 69.928 442.354 64.424 442.674 61.544C441.906 61.992 441.01 62.728 439.986 63.752C439.026 64.776 438.002 66.12 436.914 67.784C435.89 69.384 435.186 71.016 434.802 72.68ZM498.682 79.304C499.194 79.368 499.578 79.624 499.834 80.072C500.154 80.456 500.25 80.904 500.122 81.416C499.994 81.928 499.738 82.312 499.354 82.568C488.026 89.928 478.746 97.256 471.514 104.552C467.738 127.08 463.578 145.416 459.034 159.56C453.786 176.136 448.666 185.128 443.674 186.536C443.162 186.664 442.682 186.728 442.234 186.728C440.762 186.728 439.482 186.056 438.394 184.712C436.602 182.472 435.642 178.664 435.514 173.288C435.322 167.976 436.154 161.704 438.01 154.472C439.802 147.304 442.458 140.328 445.978 133.544C451.994 121.96 459.354 111.688 468.058 102.728C469.53 94.024 470.938 84.808 472.282 75.08C472.346 74.632 472.57 74.248 472.954 73.928C473.338 73.608 473.786 73.48 474.298 73.544C474.81 73.608 475.226 73.864 475.546 74.312C475.866 74.696 475.994 75.144 475.93 75.656C474.842 83.592 473.722 91.176 472.57 98.408C479.162 92.264 487.418 85.96 497.338 79.496C497.722 79.24 498.17 79.176 498.682 79.304ZM455.578 158.408C459.61 145.8 463.386 129.48 466.906 109.448C460.058 117.128 454.17 125.736 449.242 135.272C446.49 140.584 444.282 145.96 442.618 151.4C440.954 156.904 439.93 161.672 439.546 165.704C439.162 169.8 439.13 173.32 439.45 176.264C439.77 179.208 440.378 181.256 441.274 182.408C441.722 182.92 442.17 183.112 442.618 182.984C442.938 182.856 443.29 182.664 443.674 182.408C444.058 182.152 444.698 181.48 445.594 180.392C446.49 179.368 447.386 178.056 448.282 176.456C449.178 174.856 450.298 172.456 451.642 169.256C452.922 166.12 454.234 162.504 455.578 158.408ZM474.778 61.064C472.922 61 472.346 60.296 473.05 58.952C473.626 57.8 474.49 57.032 475.642 56.648C477.178 56.136 478.106 56.52 478.426 57.8C478.746 59.08 478.266 60.04 476.986 60.68C476.346 61 475.61 61.128 474.778 61.064ZM526.481 79.304C526.993 79.176 527.441 79.272 527.825 79.592C528.273 79.848 528.529 80.232 528.593 80.744C528.657 81.256 528.561 81.704 528.305 82.088C521.073 92.2 514.481 99.368 508.529 103.592C506.161 105.256 503.825 106.088 501.521 106.088C499.729 106.088 498.161 105.608 496.817 104.648C496.049 104.072 495.377 103.304 494.801 102.344C494.161 101.384 493.617 100.04 493.169 98.312C492.721 96.584 492.657 94.312 492.977 91.496C493.233 88.68 493.937 85.48 495.089 81.896V81.8C496.881 75.976 499.057 71.368 501.617 67.976C504.177 64.584 506.481 62.856 508.529 62.792C510.001 62.728 510.961 63.368 511.409 64.712C512.113 66.568 511.281 69.192 508.913 72.584C506.545 75.976 503.057 79.624 498.449 83.528C497.681 86.024 497.137 88.328 496.817 90.44C496.497 92.552 496.369 94.248 496.433 95.528C496.561 96.744 496.785 97.832 497.105 98.792C497.489 99.688 497.809 100.328 498.065 100.712C498.385 101.096 498.705 101.416 499.025 101.672C500.945 103.08 503.409 102.696 506.417 100.52C512.049 96.552 518.321 89.704 525.233 79.976C525.553 79.592 525.969 79.368 526.481 79.304ZM507.857 66.824C505.617 68.232 503.409 71.272 501.233 75.944C504.945 72.232 507.153 69.192 507.857 66.824ZM554.419 79.304C554.931 79.176 555.379 79.272 555.763 79.592C556.211 79.848 556.467 80.232 556.531 80.744C556.595 81.256 556.499 81.704 556.243 82.088C549.011 92.2 542.419 99.368 536.467 103.592C534.099 105.256 531.763 106.088 529.459 106.088C527.667 106.088 526.099 105.608 524.755 104.648C523.987 104.072 523.315 103.304 522.739 102.344C522.099 101.384 521.555 100.04 521.107 98.312C520.659 96.584 520.595 94.312 520.915 91.496C521.171 88.68 521.875 85.48 523.027 81.896V81.8C524.819 75.976 526.995 71.368 529.555 67.976C532.115 64.584 534.419 62.856 536.467 62.792C537.939 62.728 538.899 63.368 539.347 64.712C540.051 66.568 539.219 69.192 536.851 72.584C534.483 75.976 530.995 79.624 526.387 83.528C525.619 86.024 525.075 88.328 524.755 90.44C524.435 92.552 524.307 94.248 524.371 95.528C524.499 96.744 524.723 97.832 525.043 98.792C525.427 99.688 525.747 100.328 526.003 100.712C526.323 101.096 526.643 101.416 526.963 101.672C528.883 103.08 531.347 102.696 534.355 100.52C539.987 96.552 546.259 89.704 553.171 79.976C553.491 79.592 553.907 79.368 554.419 79.304ZM535.795 66.824C533.555 68.232 531.347 71.272 529.171 75.944C532.883 72.232 535.091 69.192 535.795 66.824Z" fill="black"/>
</svg>
